<svg width="310" height="279" viewBox="0 0 310 279" fill="none" xmlns="http://www.w3.org/2000/svg">
<path d="M196.334 123.052H113.361C99.5789 123.052 88.4065 134.254 88.4065 148.073V231.267C88.4065 245.086 99.5789 256.288 113.361 256.288H196.334C210.116 256.288 221.288 245.086 221.288 231.267V148.073C221.288 134.254 210.116 123.052 196.334 123.052Z" fill="#FCFCFC"/>
<path d="M113.361 123.552H196.334C209.838 123.552 220.788 134.529 220.788 148.073V231.267C220.788 244.811 209.838 255.788 196.334 255.788H113.361C99.8563 255.788 88.9065 244.811 88.9065 231.267V148.073C88.9065 134.529 99.8563 123.552 113.361 123.552Z" stroke="black" stroke-opacity="0.2"/>
<path d="M122.605 190.033C128.408 190.033 133.111 185.317 133.111 179.499C133.111 173.682 137.815 168.966 143.617 168.966C149.419 168.966 154.123 173.682 154.123 179.499C154.123 185.317 149.419 190.033 143.617 190.033C137.815 190.033 133.111 194.75 133.111 200.567V221.635C133.111 227.452 128.408 232.168 122.605 232.168C116.803 232.168 112.1 227.452 112.1 221.635V200.567C112.1 194.75 116.803 190.033 122.605 190.033Z" fill="#044CB0"/>
<path d="M132.024 178.955C132.024 184.471 127.564 188.944 122.062 188.944C116.56 188.944 112.1 184.471 112.1 178.955C112.1 173.438 116.56 168.966 122.062 168.966C127.564 168.966 132.024 173.438 132.024 178.955Z" fill="#FD393D"/>
<path d="M197.233 156.797C197.233 162.314 192.772 166.786 187.27 166.786C181.768 166.786 177.308 162.314 177.308 156.797C177.308 151.281 181.768 146.809 187.27 146.809C192.772 146.809 197.233 151.281 197.233 156.797Z" fill="#044CB0"/>
<path d="M197.233 200.022C197.233 205.539 192.772 210.011 187.27 210.011C181.768 210.011 177.308 205.539 177.308 200.022C177.308 194.505 181.768 190.033 187.27 190.033C192.772 190.033 197.233 194.505 197.233 200.022Z" fill="#FF8E00"/>
<path d="M197.233 221.635C197.233 227.452 192.529 232.168 186.727 232.168C180.925 232.168 176.221 227.452 176.221 221.635C176.221 215.817 180.925 211.101 186.727 211.101C192.529 211.101 197.233 215.817 197.233 221.635Z" fill="#044CB0"/>
<path d="M174.772 178.41C174.772 183.626 170.555 187.854 165.353 187.854C160.151 187.854 155.934 183.626 155.934 178.41C155.934 173.194 160.151 168.966 165.353 168.966C170.555 168.966 174.772 173.194 174.772 178.41Z" fill="#21B14C"/>
<path d="M165.715 188.944C171.517 188.944 176.221 184.227 176.221 178.41C176.221 172.592 171.517 167.876 165.715 167.876C159.913 167.876 155.209 163.16 155.209 157.342C155.209 151.525 159.913 146.809 165.715 146.809C171.517 146.809 176.221 151.525 176.221 157.342C176.221 163.16 180.925 167.876 186.727 167.876C192.529 167.876 197.233 172.592 197.233 178.41C197.233 184.227 192.529 188.944 186.727 188.944C180.925 188.944 176.221 193.66 176.221 199.477C176.221 205.295 171.517 210.011 165.715 210.011C159.913 210.011 155.209 205.295 155.209 199.477C155.209 193.66 159.913 188.944 165.715 188.944Z" fill="#FD393D"/>
<path d="M153.398 221.998C153.398 227.414 149.019 231.805 143.617 231.805C138.215 231.805 133.836 227.414 133.836 221.998C133.836 216.581 138.215 212.19 143.617 212.19C149.019 212.19 153.398 216.581 153.398 221.998Z" fill="#FF8E00"/>
<path d="M154.123 201.112C154.123 195.595 149.662 191.123 144.16 191.123C138.659 191.123 134.198 195.595 134.198 201.112C134.198 206.629 138.659 211.101 144.16 211.101C149.662 211.101 154.123 215.573 154.123 221.09C154.123 226.607 158.583 231.079 164.085 231.079C169.587 231.079 174.048 226.607 174.048 221.09C174.048 215.573 169.587 211.101 164.085 211.101C158.583 211.101 154.123 206.629 154.123 201.112Z" fill="#21B14C"/>
<path d="M122.605 146.809C116.803 146.809 112.1 151.525 112.1 157.342C112.1 163.16 116.803 167.876 122.605 167.876H143.617C149.419 167.876 154.123 163.16 154.123 157.342C154.123 151.525 149.419 146.809 143.617 146.809H122.605Z" fill="#FF8E00"/>
<g clip-path="url(#clip0_103_2153)">
<path d="M276.104 86C270.812 85.9986 265.615 87.4071 261.043 90.0817C256.471 92.7563 252.689 96.601 250.083 101.223C247.477 105.845 246.14 111.078 246.21 116.388C246.279 121.698 247.753 126.895 250.479 131.446C249.766 135.236 247.744 141.073 242 143.463C242 143.463 252.873 144.637 259.945 141.232C263.853 143.754 268.293 145.328 272.913 145.827C277.533 146.327 282.205 145.739 286.559 144.11C290.913 142.481 294.828 139.856 297.995 136.444C301.161 133.032 303.491 128.925 304.8 124.451C306.109 119.977 306.361 115.259 305.536 110.67C304.71 106.082 302.83 101.749 300.045 98.017C297.259 94.2847 293.645 91.2554 289.49 89.1694C285.334 87.0835 280.751 85.9983 276.104 86Z" fill="#21B14C"/>
<path d="M286.375 114.204C286.131 113.631 285.642 113.182 285.006 112.96L281.393 112C282.584 111.156 283.606 109.738 283.606 108.298C283.606 106.449 282.419 104.876 280.748 104.271C280.566 104.2 280.379 104.147 280.184 104.102C279.98 104.058 279.766 104.027 279.548 104.013C279.446 104.004 279.339 104 279.233 104C279.13 104 279.028 104.004 278.926 104.009C278.717 104.022 278.513 104.053 278.313 104.098H278.304C278.184 104.124 278.068 104.156 277.953 104.191C277.935 104.191 277.917 104.195 277.904 104.204C277.802 104.236 277.699 104.271 277.597 104.311C277.508 104.347 277.419 104.387 277.335 104.427C277.192 104.493 277.055 104.569 276.921 104.653C276.828 104.707 276.735 104.773 276.641 104.835L276.637 104.84C276.539 104.911 276.446 104.986 276.353 105.066C276.344 105.071 276.335 105.08 276.33 105.084C276.246 105.16 276.166 105.235 276.09 105.315C276.046 105.36 276.006 105.4 275.966 105.444C275.926 105.489 275.886 105.538 275.846 105.582C275.779 105.662 275.717 105.742 275.659 105.822C275.606 105.898 275.553 105.978 275.504 106.058C275.455 106.138 275.406 106.218 275.361 106.302C275.344 106.333 275.326 106.369 275.308 106.4C275.232 106.556 275.161 106.715 275.104 106.88C275.081 106.947 275.059 107.009 275.042 107.076C275.028 107.111 275.019 107.142 275.01 107.182C274.979 107.298 274.953 107.413 274.93 107.529C274.926 107.538 274.926 107.547 274.926 107.556C274.917 107.609 274.908 107.662 274.9 107.715C274.891 107.769 274.886 107.827 274.882 107.884C274.873 107.938 274.868 107.995 274.868 108.049C274.864 108.133 274.859 108.213 274.859 108.298C274.859 109.182 274.948 110.16 275.495 110.96C275.522 111 275.553 111.044 275.584 111.085L275.299 111.249L271.059 113.738C270.637 114.009 270.397 114.467 270.419 114.96C270.437 115.458 270.721 115.893 271.17 116.129L271.797 116.458L272.784 116.978L267.993 123.707L267.744 124.058L267.357 124.604L267.353 124.613L267.255 124.747C267.237 124.769 267.224 124.791 267.211 124.818C267.113 124.969 267.051 125.133 267.024 125.307C266.993 125.453 266.993 125.604 267.02 125.751C267.024 125.795 267.033 125.836 267.042 125.88C267.068 125.991 267.113 126.093 267.162 126.191C267.304 126.449 267.522 126.658 267.797 126.791L269.033 127.382C269.637 127.675 270.357 127.52 270.78 127.013L275.957 120.791L276.731 121.285L274.144 125.191C273.918 125.534 273.855 125.951 273.975 126.342C274.1 126.742 274.398 127.067 274.789 127.227L276.397 127.889C276.579 127.964 276.771 128 276.957 128C277.437 128 277.899 127.764 278.171 127.342L280.962 122.982C281.486 122.16 281.482 121.098 280.948 120.275L279.357 117.827L280.495 116.004L283.415 117.129C284.575 117.573 285.873 117.053 286.366 115.942C286.615 115.382 286.62 114.764 286.375 114.204L286.375 114.204Z" fill="white"/>
</g>
<g clip-path="url(#clip1_103_2153)">
<path d="M33.9066 86C39.1986 85.9986 44.3961 87.4071 48.968 90.0817C53.5399 92.7563 57.3221 96.601 59.9283 101.223C62.5344 105.845 63.871 111.078 63.8014 116.388C63.7318 121.698 62.2586 126.895 59.5322 131.446C60.2449 135.236 62.2671 141.073 68.0111 143.463C68.0111 143.463 57.1384 144.637 50.0665 141.232C46.1584 143.754 41.7182 145.328 37.0984 145.827C32.4785 146.327 27.8063 145.739 23.4524 144.11C19.0986 142.481 15.183 139.856 12.0165 136.444C8.85004 133.032 6.51982 128.925 5.21083 124.451C3.90183 119.977 3.65009 115.259 4.47561 110.67C5.30112 106.082 7.18114 101.749 9.96646 98.017C12.7518 94.2847 16.3657 91.2554 20.5214 89.1694C24.677 87.0835 29.26 85.9983 33.9066 86Z" fill="#FD393D"/>
<path d="M39.9743 123.763C40.551 125.077 39.9543 126.61 38.6392 127.185C37.3256 127.762 35.7934 127.165 35.2176 125.85C35.0627 125.499 34.9997 125.132 35.0044 124.771L39.3256 122.877C39.5933 123.116 39.8196 123.411 39.9744 123.763H39.9743Z" fill="white"/>
<path d="M26.6315 116.897C25.4122 113.829 26.0327 110.905 27.8554 108.993C27.7802 108.878 27.7042 108.771 27.6475 108.639C27.0708 107.326 27.6681 105.795 28.9818 105.219C30.2955 104.643 31.8276 105.242 32.4041 106.554C32.4585 106.679 32.4885 106.807 32.5207 106.936C35.2514 106.88 37.9469 108.543 39.3555 111.371C39.3555 111.371 41.4421 116.162 43.7335 116.543C43.804 116.547 45.0333 116.577 45.4083 117.473C45.7618 118.32 45.034 119.455 43.768 120L30.058 125.908C28.7936 126.453 27.3963 126.235 27.0972 125.367C26.802 124.512 27.4499 123.717 27.5113 123.647C28.805 121.659 26.6318 116.897 26.6318 116.897L26.6315 116.897Z" fill="white"/>
</g>
<g clip-path="url(#clip2_103_2153)">
<path d="M212.105 23C206.813 22.9986 201.615 24.4071 197.043 27.0817C192.471 29.7563 188.689 33.601 186.083 38.2229C183.477 42.8448 182.14 48.0782 182.21 53.3883C182.279 58.6983 183.753 63.8947 186.479 68.4462C185.766 72.2359 183.744 78.0733 178 80.4633C178 80.4633 188.873 81.6369 195.945 78.2323C199.853 80.7545 204.293 82.3278 208.913 82.8273C213.533 83.3269 218.205 82.7389 222.559 81.1101C226.913 79.4813 230.828 76.8565 233.995 73.444C237.161 70.0315 239.491 65.9253 240.8 61.4514C242.109 56.9774 242.361 52.2588 241.536 47.6702C240.71 43.0816 238.83 38.7492 236.045 35.017C233.259 31.2847 229.645 28.2554 225.49 26.1694C221.334 24.0835 216.751 22.9983 212.105 23Z" fill="#FF8E00"/>
<path d="M219.637 42H203.758C201.139 42 199 44.1386 199 46.7582V60.0437C199 62.6633 201.139 64.8019 203.758 64.8019H219.61C222.23 64.8019 224.368 62.6633 224.368 60.0437L224.368 46.7849C224.395 44.1385 222.256 42 219.637 42H219.637ZM218.3 46.2236C219.262 46.2236 220.038 46.9987 220.038 47.961C220.038 48.9233 219.262 49.6984 218.3 49.6984C217.338 49.6984 216.563 48.9233 216.563 47.961C216.563 46.9989 217.338 46.2236 218.3 46.2236ZM219.637 62.5297H203.758C202.395 62.5297 201.299 61.4337 201.299 60.0704V57.3171L207.795 49.8858C207.982 49.6719 208.303 49.6719 208.463 49.8858L212.446 54.4569C212.499 54.5371 212.526 54.6441 212.526 54.7243L212.018 57.0767C211.992 57.2371 212.205 57.3441 212.312 57.2371L216.322 52.8265C216.456 52.6928 216.67 52.6928 216.776 52.8265L222.096 58.6807V60.0439C222.096 61.407 220.973 62.5297 219.637 62.5297L219.637 62.5297Z" fill="white"/>
</g>
<g clip-path="url(#clip3_103_2153)">
<path d="M97.9066 23C103.199 22.9986 108.396 24.4071 112.968 27.0817C117.54 29.7563 121.322 33.601 123.928 38.2229C126.534 42.8448 127.871 48.0782 127.801 53.3883C127.732 58.6983 126.259 63.8947 123.532 68.4462C124.245 72.2359 126.267 78.0733 132.011 80.4633C132.011 80.4633 121.138 81.6369 114.067 78.2323C110.158 80.7545 105.718 82.3278 101.098 82.8273C96.4785 83.3269 91.8063 82.7389 87.4524 81.1101C83.0986 79.4813 79.183 76.8565 76.0165 73.444C72.85 70.0315 70.5198 65.9253 69.2108 61.4514C67.9018 56.9774 67.6501 52.2588 68.4756 47.6702C69.3011 43.0816 71.1811 38.7492 73.9665 35.017C76.7518 31.2847 80.3657 28.2554 84.5214 26.1694C88.677 24.0835 93.26 22.9983 97.9066 23Z" fill="#044CB0"/>
<path fill-rule="evenodd" clip-rule="evenodd" d="M104.189 52.8243L97.686 61.6926L91.1826 52.8243H91.2121C90.4435 51.6419 90 50.2229 90 48.6858C90 44.429 93.4291 41 97.6858 41C101.943 41 105.372 44.4291 105.372 48.6858C105.371 50.2231 104.928 51.6419 104.189 52.8243H104.189ZM97.686 45.7296C96.0601 45.7296 94.7299 47.0598 94.7299 48.6857C94.7299 50.3116 96.0601 51.6418 97.686 51.6418C99.3119 51.6418 100.642 50.3116 100.642 48.6857C100.642 47.0598 99.3119 45.7296 97.686 45.7296ZM97.686 62.875C101.943 62.875 105.372 63.407 105.372 64.0573C105.372 64.7077 101.943 65.2397 97.686 65.2397C93.4292 65.2397 90.0001 64.7077 90.0001 64.0573C90.0001 63.407 93.4292 62.875 97.686 62.875Z" fill="white"/>
</g>
<defs>
<clipPath id="clip0_103_2153">
<rect width="64" height="60" fill="white" transform="translate(242 86)"/>
</clipPath>
<clipPath id="clip1_103_2153">
<rect width="64" height="60" fill="white" transform="translate(4 86)"/>
</clipPath>
<clipPath id="clip2_103_2153">
<rect width="64" height="76" fill="white" transform="translate(178 19)"/>
</clipPath>
<clipPath id="clip3_103_2153">
<rect width="64" height="60" fill="white" transform="translate(68 23)"/>
</clipPath>
</defs>
</svg>
