<svg width="40" height="40" viewBox="0 0 40 40" fill="none" xmlns="http://www.w3.org/2000/svg">
<path d="M26.8412 28.6123C27.5362 30.1954 26.8171 32.0436 25.2322 32.7367C23.649 33.4317 21.8026 32.7118 21.1086 31.1268C20.9219 30.7045 20.846 30.2617 20.8517 29.8274L26.0593 27.5438C26.382 27.8324 26.6547 28.1881 26.8413 28.6123H26.8412Z" fill="#FD393D"/>
<path d="M10.7611 20.3375C9.29166 16.6408 10.0394 13.1169 12.236 10.8122C12.1454 10.6736 12.0539 10.5442 11.9855 10.3853C11.2905 8.80306 12.0104 6.95847 13.5936 6.26442C15.1767 5.56945 17.0232 6.2921 17.718 7.87339C17.7835 8.02312 17.8197 8.17831 17.8585 8.33274C21.1493 8.26626 24.3978 10.2698 26.0955 13.6783C26.0955 13.6783 28.6102 19.4515 31.3716 19.911C31.4565 19.9157 32.938 19.9526 33.39 21.032C33.816 22.0532 32.9389 23.4199 31.4132 24.0771L14.8905 31.1974C13.3667 31.8545 11.6828 31.591 11.3223 30.5459C10.9665 29.5155 11.7473 28.5571 11.8214 28.4721C13.3804 26.0766 10.7614 20.3378 10.7614 20.3378L10.7611 20.3375Z" fill="#FD393D"/>
</svg>
