<svg width="40" height="40" viewBox="0 0 40 40" fill="none" xmlns="http://www.w3.org/2000/svg">
<path fill-rule="evenodd" clip-rule="evenodd" d="M27.3601 19.7999L20.3201 29.3999L13.2801 19.7999H13.3121C12.4801 18.5201 12 16.9839 12 15.3201C12 10.712 15.7121 7.00006 20.32 7.00006C24.9279 7.00006 28.64 10.7121 28.64 15.3201C28.6398 16.9841 28.1599 18.5201 27.3599 19.7999H27.3601ZM20.3201 12.1199C18.5601 12.1199 17.1201 13.5599 17.1201 15.3199C17.1201 17.08 18.5601 18.5199 20.3201 18.5199C22.0802 18.5199 23.5201 17.08 23.5201 15.3199C23.5201 13.5599 22.0802 12.1199 20.3201 12.1199ZM20.3201 30.6799C24.9282 30.6799 28.6401 31.2558 28.6401 31.9598C28.6401 32.6638 24.9281 33.2397 20.3201 33.2397C15.7122 33.2397 12.0001 32.6638 12.0001 31.9598C12.0001 31.2558 15.7122 30.6799 20.3201 30.6799Z" fill="#044CB0"/>
</svg>
