<svg width="40" height="40" viewBox="0 0 40 40" fill="none" xmlns="http://www.w3.org/2000/svg">
<path d="M29.504 6H10.496C7.36004 6 4.79999 8.56006 4.79999 11.696V27.6C4.79999 30.7359 7.36004 33.296 10.496 33.296H29.472C32.6079 33.296 35.168 30.7359 35.168 27.6L35.1682 11.728C35.2001 8.55994 32.6401 6 29.5042 6H29.504ZM27.904 11.056C29.056 11.056 29.9839 11.9839 29.9839 13.1359C29.9839 14.2879 29.056 15.2158 27.904 15.2158C26.752 15.2158 25.8241 14.2879 25.8241 13.1359C25.8241 11.9841 26.752 11.056 27.904 11.056ZM29.504 30.576H10.496C8.86404 30.576 7.55199 29.2639 7.55199 27.632V24.336L15.328 15.44C15.5521 15.184 15.936 15.184 16.128 15.44L20.896 20.9121C20.9601 21.0081 20.992 21.1362 20.992 21.2322L20.384 24.0483C20.3521 24.2402 20.6081 24.3684 20.736 24.2402L25.536 18.9603C25.696 18.8003 25.9521 18.8003 26.08 18.9603L32.448 25.9683V27.6003C32.448 29.232 31.104 30.5759 29.504 30.5759L29.504 30.576Z" fill="#FF8E00"/>
</svg>
