<svg width="40" height="40" viewBox="0 0 40 40" fill="none" xmlns="http://www.w3.org/2000/svg">
<path d="M30.7968 18.48C30.5218 17.8349 29.9718 17.33 29.2569 17.08L25.1919 16.0001C26.5319 15.0501 27.6819 13.455 27.6819 11.8351C27.6819 9.75525 26.3468 7.98514 24.4669 7.30525C24.262 7.22535 24.0519 7.1653 23.8319 7.1153C23.602 7.0653 23.362 7.03025 23.1169 7.0153C23.0017 7.00503 22.8818 7.00012 22.7618 7.00012C22.6468 7.00012 22.5319 7.00503 22.4167 7.01017C22.1816 7.02512 21.9517 7.06017 21.7267 7.11017H21.7167C21.5816 7.14008 21.4517 7.17512 21.3216 7.21508C21.3015 7.21508 21.2816 7.21999 21.2667 7.23003C21.1517 7.26508 21.0368 7.30503 20.9216 7.35012C20.8216 7.39008 20.7216 7.43517 20.6265 7.48003C20.4665 7.55503 20.3115 7.64008 20.1615 7.73494C20.0566 7.79498 19.9515 7.86998 19.8466 7.93985L19.8417 7.94476C19.7316 8.02467 19.6267 8.10971 19.5216 8.19967C19.5115 8.20458 19.5015 8.21462 19.4966 8.21976C19.4015 8.3048 19.3115 8.38985 19.2265 8.4798C19.1767 8.53003 19.1319 8.57512 19.0868 8.62512C19.0417 8.67512 18.9968 8.73002 18.9517 8.78002C18.8767 8.86998 18.8066 8.95993 18.7417 9.05012C18.6816 9.13516 18.6216 9.22512 18.5667 9.31507C18.5118 9.40502 18.4566 9.49498 18.4066 9.59007C18.3865 9.62512 18.3667 9.66507 18.3466 9.70012C18.2615 9.87512 18.1816 10.055 18.1167 10.2401C18.0917 10.3151 18.0667 10.3852 18.0468 10.4602C18.0318 10.5001 18.0218 10.5352 18.0118 10.58C17.9767 10.7099 17.9468 10.8401 17.9218 10.97C17.9169 10.98 17.9169 10.9901 17.9169 11.0001C17.9068 11.0602 17.8968 11.1202 17.887 11.18C17.8769 11.2401 17.872 11.305 17.8669 11.37C17.8568 11.43 17.8519 11.495 17.8519 11.555C17.847 11.6501 17.8419 11.7401 17.8419 11.8349C17.8419 12.83 17.9419 13.93 18.5569 14.83C18.5868 14.8751 18.6218 14.9251 18.6569 14.9702L18.3368 15.1552L13.5667 17.9552C13.0917 18.2602 12.8216 18.7754 12.8465 19.3302C12.8666 19.8903 13.1865 20.3802 13.6916 20.6452L14.3965 21.0153L15.5066 21.6003L10.1169 29.17L9.83698 29.5651L9.40193 30.1801L9.39702 30.1901L9.28698 30.3401C9.26689 30.3651 9.25193 30.3901 9.23698 30.42C9.12693 30.5901 9.05685 30.7749 9.02693 30.97C8.99189 31.135 8.99189 31.3051 9.02202 31.47C9.02693 31.52 9.03698 31.5651 9.04702 31.6151C9.07693 31.7401 9.12693 31.8551 9.18207 31.9651C9.34211 32.2551 9.58698 32.4901 9.89704 32.6401L11.287 33.3051C11.9669 33.635 12.7769 33.46 13.252 32.8901L19.0771 25.8901L19.9472 26.4452L17.0372 30.8403C16.7822 31.2254 16.7122 31.6952 16.8472 32.1354C16.9872 32.5854 17.3222 32.9504 17.7622 33.1305L19.572 33.8749C19.7769 33.96 19.9921 33.9999 20.2019 33.9999C20.7418 33.9999 21.2619 33.7349 21.5669 33.26L24.7068 28.3551C25.2967 27.43 25.2918 26.2349 24.6918 25.31L22.9019 22.555L24.1818 20.505L27.4668 21.77C28.7717 22.27 30.2318 21.685 30.7869 20.435C31.0671 19.8049 31.072 19.11 30.797 18.4798L30.7968 18.48Z" fill="#21B14C"/>
</svg>
